<mxfile host="app.diagrams.net" modified="2023-09-04T17:13:21.117Z" agent="Mozilla/5.0 (Windows NT 10.0; Win64; x64) AppleWebKit/537.36 (KHTML, like Gecko) Chrome/116.0.0.0 Safari/537.36" etag="GW-QE21lFYDJmDBCmVjP" version="21.7.0" type="device">
  <diagram name="PÃ¡gina-1" id="l1d0gHR87kjEKVX3l4yo">
    <mxGraphModel dx="1434" dy="758" grid="1" gridSize="10" guides="1" tooltips="1" connect="1" arrows="1" fold="1" page="1" pageScale="1" pageWidth="1169" pageHeight="827" math="0" shadow="0">
      <root>
        <mxCell id="0" />
        <mxCell id="1" parent="0" />
        <mxCell id="lKLIBIe5lxp-Cx0wBljX-1" value="Marketing specialist" style="shape=umlActor;verticalLabelPosition=bottom;verticalAlign=top;html=1;outlineConnect=0;" vertex="1" parent="1">
          <mxGeometry x="90" y="280" width="45" height="90" as="geometry" />
        </mxCell>
        <mxCell id="lKLIBIe5lxp-Cx0wBljX-2" value="View Reports" style="ellipse;whiteSpace=wrap;html=1;" vertex="1" parent="1">
          <mxGeometry x="280" y="100" width="120" height="80" as="geometry" />
        </mxCell>
        <mxCell id="lKLIBIe5lxp-Cx0wBljX-3" value="Manage Contacts" style="ellipse;whiteSpace=wrap;html=1;" vertex="1" parent="1">
          <mxGeometry x="280" y="200" width="120" height="80" as="geometry" />
        </mxCell>
        <mxCell id="lKLIBIe5lxp-Cx0wBljX-4" value="Manage Forms" style="ellipse;whiteSpace=wrap;html=1;" vertex="1" parent="1">
          <mxGeometry x="280" y="310" width="120" height="80" as="geometry" />
        </mxCell>
        <mxCell id="lKLIBIe5lxp-Cx0wBljX-5" value="Notify Marketing Specialist" style="ellipse;whiteSpace=wrap;html=1;" vertex="1" parent="1">
          <mxGeometry x="525" y="310" width="120" height="80" as="geometry" />
        </mxCell>
        <mxCell id="lKLIBIe5lxp-Cx0wBljX-6" value="Submit Form" style="ellipse;whiteSpace=wrap;html=1;" vertex="1" parent="1">
          <mxGeometry x="790" y="310" width="120" height="80" as="geometry" />
        </mxCell>
        <mxCell id="lKLIBIe5lxp-Cx0wBljX-7" value="Send&amp;nbsp;&lt;br&gt;Communication" style="ellipse;whiteSpace=wrap;html=1;" vertex="1" parent="1">
          <mxGeometry x="525" y="590" width="120" height="80" as="geometry" />
        </mxCell>
        <mxCell id="lKLIBIe5lxp-Cx0wBljX-8" value="Send Reminders" style="ellipse;whiteSpace=wrap;html=1;" vertex="1" parent="1">
          <mxGeometry x="790" y="470" width="120" height="80" as="geometry" />
        </mxCell>
        <mxCell id="lKLIBIe5lxp-Cx0wBljX-9" value="Send Special Offers" style="ellipse;whiteSpace=wrap;html=1;" vertex="1" parent="1">
          <mxGeometry x="790" y="588" width="120" height="80" as="geometry" />
        </mxCell>
        <mxCell id="lKLIBIe5lxp-Cx0wBljX-10" value="Send e-mail" style="ellipse;whiteSpace=wrap;html=1;" vertex="1" parent="1">
          <mxGeometry x="277" y="780" width="120" height="50" as="geometry" />
        </mxCell>
        <mxCell id="lKLIBIe5lxp-Cx0wBljX-11" value="Send SMS" style="ellipse;whiteSpace=wrap;html=1;" vertex="1" parent="1">
          <mxGeometry x="427" y="780" width="120" height="50" as="geometry" />
        </mxCell>
        <mxCell id="lKLIBIe5lxp-Cx0wBljX-12" value="Send Hipchat" style="ellipse;whiteSpace=wrap;html=1;" vertex="1" parent="1">
          <mxGeometry x="587" y="780" width="120" height="50" as="geometry" />
        </mxCell>
        <mxCell id="lKLIBIe5lxp-Cx0wBljX-13" value="Send Slack" style="ellipse;whiteSpace=wrap;html=1;" vertex="1" parent="1">
          <mxGeometry x="737" y="780" width="120" height="50" as="geometry" />
        </mxCell>
        <mxCell id="lKLIBIe5lxp-Cx0wBljX-14" value="" style="endArrow=none;html=1;rounded=0;entryX=0.025;entryY=0.663;entryDx=0;entryDy=0;entryPerimeter=0;" edge="1" parent="1" target="lKLIBIe5lxp-Cx0wBljX-2">
          <mxGeometry width="50" height="50" relative="1" as="geometry">
            <mxPoint x="140" y="290" as="sourcePoint" />
            <mxPoint x="185" y="240" as="targetPoint" />
          </mxGeometry>
        </mxCell>
        <mxCell id="lKLIBIe5lxp-Cx0wBljX-15" value="" style="endArrow=none;html=1;rounded=0;" edge="1" parent="1" target="lKLIBIe5lxp-Cx0wBljX-4">
          <mxGeometry width="50" height="50" relative="1" as="geometry">
            <mxPoint x="140" y="290" as="sourcePoint" />
            <mxPoint x="293" y="163" as="targetPoint" />
          </mxGeometry>
        </mxCell>
        <mxCell id="lKLIBIe5lxp-Cx0wBljX-16" value="" style="endArrow=none;html=1;rounded=0;entryX=-0.008;entryY=0.613;entryDx=0;entryDy=0;entryPerimeter=0;" edge="1" parent="1" target="lKLIBIe5lxp-Cx0wBljX-3">
          <mxGeometry width="50" height="50" relative="1" as="geometry">
            <mxPoint x="140" y="290" as="sourcePoint" />
            <mxPoint x="325" y="280" as="targetPoint" />
          </mxGeometry>
        </mxCell>
        <mxCell id="lKLIBIe5lxp-Cx0wBljX-17" value="Marketer&#39;s use case diagram" style="text;strokeColor=none;fillColor=none;html=1;fontSize=24;fontStyle=1;verticalAlign=middle;align=center;" vertex="1" parent="1">
          <mxGeometry x="660" y="40" width="100" height="40" as="geometry" />
        </mxCell>
        <mxCell id="lKLIBIe5lxp-Cx0wBljX-18" value="Project: Marketing Automation System" style="text;align=center;fontStyle=1;verticalAlign=middle;spacingLeft=3;spacingRight=3;strokeColor=none;rotatable=0;points=[[0,0.5],[1,0.5]];portConstraint=eastwest;html=1;" vertex="1" parent="1">
          <mxGeometry x="617" y="72" width="80" height="26" as="geometry" />
        </mxCell>
        <mxCell id="lKLIBIe5lxp-Cx0wBljX-20" value="Customer" style="shape=umlActor;verticalLabelPosition=bottom;verticalAlign=top;html=1;outlineConnect=0;" vertex="1" parent="1">
          <mxGeometry x="1060" y="280" width="45" height="90" as="geometry" />
        </mxCell>
        <mxCell id="lKLIBIe5lxp-Cx0wBljX-21" value="&amp;lt;&amp;lt;system&amp;gt;&amp;gt;&lt;br&gt;Notification Engine" style="shape=umlActor;verticalLabelPosition=bottom;verticalAlign=top;html=1;outlineConnect=0;" vertex="1" parent="1">
          <mxGeometry x="1060" y="490" width="45" height="90" as="geometry" />
        </mxCell>
        <mxCell id="lKLIBIe5lxp-Cx0wBljX-22" value="" style="endArrow=none;html=1;rounded=0;" edge="1" parent="1">
          <mxGeometry width="50" height="50" relative="1" as="geometry">
            <mxPoint x="910" y="349.5" as="sourcePoint" />
            <mxPoint x="1040" y="350" as="targetPoint" />
          </mxGeometry>
        </mxCell>
        <mxCell id="lKLIBIe5lxp-Cx0wBljX-23" value="" style="endArrow=open;html=1;rounded=0;endFill=0;exitX=0;exitY=0.5;exitDx=0;exitDy=0;dashed=1;dashPattern=12 12;" edge="1" parent="1" source="lKLIBIe5lxp-Cx0wBljX-6">
          <mxGeometry width="50" height="50" relative="1" as="geometry">
            <mxPoint x="780" y="350" as="sourcePoint" />
            <mxPoint x="645" y="349.5" as="targetPoint" />
          </mxGeometry>
        </mxCell>
        <mxCell id="lKLIBIe5lxp-Cx0wBljX-25" value="&lt;font style=&quot;font-size: 12px;&quot;&gt;&amp;lt;&amp;lt;include&amp;gt;&amp;gt;&lt;/font&gt;" style="edgeLabel;html=1;align=center;verticalAlign=middle;resizable=0;points=[];" vertex="1" connectable="0" parent="lKLIBIe5lxp-Cx0wBljX-23">
          <mxGeometry x="-0.0963" relative="1" as="geometry">
            <mxPoint as="offset" />
          </mxGeometry>
        </mxCell>
        <mxCell id="lKLIBIe5lxp-Cx0wBljX-26" value="" style="endArrow=open;html=1;rounded=0;endFill=0;dashed=1;dashPattern=12 12;entryX=0.5;entryY=0;entryDx=0;entryDy=0;" edge="1" parent="1" target="lKLIBIe5lxp-Cx0wBljX-7">
          <mxGeometry width="50" height="50" relative="1" as="geometry">
            <mxPoint x="587" y="390" as="sourcePoint" />
            <mxPoint x="587" y="580" as="targetPoint" />
          </mxGeometry>
        </mxCell>
        <mxCell id="lKLIBIe5lxp-Cx0wBljX-27" value="&lt;font style=&quot;font-size: 12px;&quot;&gt;&amp;lt;&amp;lt;include&amp;gt;&amp;gt;&lt;/font&gt;" style="edgeLabel;html=1;align=center;verticalAlign=middle;resizable=0;points=[];" vertex="1" connectable="0" parent="lKLIBIe5lxp-Cx0wBljX-26">
          <mxGeometry x="-0.0963" relative="1" as="geometry">
            <mxPoint as="offset" />
          </mxGeometry>
        </mxCell>
        <mxCell id="lKLIBIe5lxp-Cx0wBljX-28" value="" style="endArrow=none;html=1;rounded=0;" edge="1" parent="1">
          <mxGeometry width="50" height="50" relative="1" as="geometry">
            <mxPoint x="910" y="620" as="sourcePoint" />
            <mxPoint x="1050" y="550" as="targetPoint" />
          </mxGeometry>
        </mxCell>
        <mxCell id="lKLIBIe5lxp-Cx0wBljX-29" value="" style="endArrow=none;html=1;rounded=0;exitX=1;exitY=0.613;exitDx=0;exitDy=0;exitPerimeter=0;" edge="1" parent="1" source="lKLIBIe5lxp-Cx0wBljX-8">
          <mxGeometry width="50" height="50" relative="1" as="geometry">
            <mxPoint x="950" y="520" as="sourcePoint" />
            <mxPoint x="1050" y="550" as="targetPoint" />
          </mxGeometry>
        </mxCell>
        <mxCell id="lKLIBIe5lxp-Cx0wBljX-30" value="" style="endArrow=open;html=1;rounded=0;endFill=0;exitX=0.033;exitY=0.725;exitDx=0;exitDy=0;dashed=1;dashPattern=12 12;entryX=0.925;entryY=0.15;entryDx=0;entryDy=0;entryPerimeter=0;exitPerimeter=0;" edge="1" parent="1" source="lKLIBIe5lxp-Cx0wBljX-8" target="lKLIBIe5lxp-Cx0wBljX-7">
          <mxGeometry width="50" height="50" relative="1" as="geometry">
            <mxPoint x="805" y="520.5" as="sourcePoint" />
            <mxPoint x="660" y="520" as="targetPoint" />
          </mxGeometry>
        </mxCell>
        <mxCell id="lKLIBIe5lxp-Cx0wBljX-31" value="&lt;font style=&quot;font-size: 12px;&quot;&gt;&amp;lt;&amp;lt;include&amp;gt;&amp;gt;&lt;/font&gt;" style="edgeLabel;html=1;align=center;verticalAlign=middle;resizable=0;points=[];" vertex="1" connectable="0" parent="lKLIBIe5lxp-Cx0wBljX-30">
          <mxGeometry x="-0.0963" relative="1" as="geometry">
            <mxPoint as="offset" />
          </mxGeometry>
        </mxCell>
        <mxCell id="lKLIBIe5lxp-Cx0wBljX-32" value="" style="endArrow=open;html=1;rounded=0;endFill=0;dashed=1;dashPattern=12 12;exitX=0;exitY=0.5;exitDx=0;exitDy=0;" edge="1" parent="1" source="lKLIBIe5lxp-Cx0wBljX-9">
          <mxGeometry width="50" height="50" relative="1" as="geometry">
            <mxPoint x="780" y="630" as="sourcePoint" />
            <mxPoint x="650" y="630" as="targetPoint" />
          </mxGeometry>
        </mxCell>
        <mxCell id="lKLIBIe5lxp-Cx0wBljX-33" value="&lt;font style=&quot;font-size: 12px;&quot;&gt;&amp;lt;&amp;lt;include&amp;gt;&amp;gt;&lt;/font&gt;" style="edgeLabel;html=1;align=center;verticalAlign=middle;resizable=0;points=[];" vertex="1" connectable="0" parent="lKLIBIe5lxp-Cx0wBljX-32">
          <mxGeometry x="-0.0963" relative="1" as="geometry">
            <mxPoint as="offset" />
          </mxGeometry>
        </mxCell>
        <mxCell id="lKLIBIe5lxp-Cx0wBljX-34" value="" style="endArrow=none;dashed=1;html=1;rounded=0;dashPattern=12 12;" edge="1" parent="1" target="lKLIBIe5lxp-Cx0wBljX-7">
          <mxGeometry width="50" height="50" relative="1" as="geometry">
            <mxPoint x="380" y="790" as="sourcePoint" />
            <mxPoint x="430" y="740" as="targetPoint" />
          </mxGeometry>
        </mxCell>
        <mxCell id="lKLIBIe5lxp-Cx0wBljX-38" value="&lt;font style=&quot;font-size: 12px;&quot;&gt;&amp;lt;&amp;lt;extend&amp;gt;&amp;gt;&lt;/font&gt;" style="edgeLabel;html=1;align=center;verticalAlign=middle;resizable=0;points=[];" vertex="1" connectable="0" parent="lKLIBIe5lxp-Cx0wBljX-34">
          <mxGeometry x="0.0661" y="2" relative="1" as="geometry">
            <mxPoint y="-1" as="offset" />
          </mxGeometry>
        </mxCell>
        <mxCell id="lKLIBIe5lxp-Cx0wBljX-35" value="" style="endArrow=none;dashed=1;html=1;rounded=0;dashPattern=12 12;exitX=0.358;exitY=-0.08;exitDx=0;exitDy=0;exitPerimeter=0;" edge="1" parent="1" source="lKLIBIe5lxp-Cx0wBljX-13" target="lKLIBIe5lxp-Cx0wBljX-7">
          <mxGeometry width="50" height="50" relative="1" as="geometry">
            <mxPoint x="390" y="800" as="sourcePoint" />
            <mxPoint x="556" y="670" as="targetPoint" />
          </mxGeometry>
        </mxCell>
        <mxCell id="lKLIBIe5lxp-Cx0wBljX-36" value="" style="endArrow=none;dashed=1;html=1;rounded=0;dashPattern=12 12;exitX=0.608;exitY=-0.06;exitDx=0;exitDy=0;exitPerimeter=0;entryX=0.358;entryY=0.988;entryDx=0;entryDy=0;entryPerimeter=0;" edge="1" parent="1" source="lKLIBIe5lxp-Cx0wBljX-11" target="lKLIBIe5lxp-Cx0wBljX-7">
          <mxGeometry width="50" height="50" relative="1" as="geometry">
            <mxPoint x="400" y="810" as="sourcePoint" />
            <mxPoint x="570" y="680" as="targetPoint" />
          </mxGeometry>
        </mxCell>
        <mxCell id="lKLIBIe5lxp-Cx0wBljX-37" value="" style="endArrow=none;dashed=1;html=1;rounded=0;dashPattern=12 12;exitX=0.5;exitY=0;exitDx=0;exitDy=0;" edge="1" parent="1" source="lKLIBIe5lxp-Cx0wBljX-12">
          <mxGeometry width="50" height="50" relative="1" as="geometry">
            <mxPoint x="667" y="780" as="sourcePoint" />
            <mxPoint x="600" y="660" as="targetPoint" />
          </mxGeometry>
        </mxCell>
        <mxCell id="lKLIBIe5lxp-Cx0wBljX-39" value="&lt;font style=&quot;font-size: 12px;&quot;&gt;&amp;lt;&amp;lt;extend&amp;gt;&amp;gt;&lt;/font&gt;" style="edgeLabel;html=1;align=center;verticalAlign=middle;resizable=0;points=[];" vertex="1" connectable="0" parent="1">
          <mxGeometry x="540.000826039522" y="720.0030326278959" as="geometry" />
        </mxCell>
        <mxCell id="lKLIBIe5lxp-Cx0wBljX-40" value="&lt;font style=&quot;font-size: 12px;&quot;&gt;&amp;lt;&amp;lt;extend&amp;gt;&amp;gt;&lt;/font&gt;" style="edgeLabel;html=1;align=center;verticalAlign=middle;resizable=0;points=[];" vertex="1" connectable="0" parent="1">
          <mxGeometry x="617.000826039522" y="720.0030326278959" as="geometry" />
        </mxCell>
        <mxCell id="lKLIBIe5lxp-Cx0wBljX-41" value="&lt;font style=&quot;font-size: 12px;&quot;&gt;&amp;lt;&amp;lt;extend&amp;gt;&amp;gt;&lt;/font&gt;" style="edgeLabel;html=1;align=center;verticalAlign=middle;resizable=0;points=[];" vertex="1" connectable="0" parent="1">
          <mxGeometry x="710.000826039522" y="720.0030326278959" as="geometry" />
        </mxCell>
        <mxCell id="lKLIBIe5lxp-Cx0wBljX-42" value="" style="endArrow=none;html=1;rounded=0;entryX=0.067;entryY=0.288;entryDx=0;entryDy=0;entryPerimeter=0;" edge="1" parent="1" target="lKLIBIe5lxp-Cx0wBljX-7">
          <mxGeometry width="50" height="50" relative="1" as="geometry">
            <mxPoint x="140" y="290" as="sourcePoint" />
            <mxPoint x="335" y="504" as="targetPoint" />
          </mxGeometry>
        </mxCell>
      </root>
    </mxGraphModel>
  </diagram>
</mxfile>
